<svg width="50" height="50" viewBox="0 0 50 50" fill="none" xmlns="http://www.w3.org/2000/svg">
<path fill-rule="evenodd" clip-rule="evenodd" d="M5.84104 17.4027C5.25741 22.8254 5.28342 29.0796 6.09555 34.4802C6.54492 37.4686 8.98382 39.7595 11.9944 40.0212L15.1407 40.2947C21.7012 40.865 28.2988 40.865 34.8594 40.2947L38.0057 40.0212C41.0162 39.7595 43.4551 37.4686 43.9045 34.4802C44.7166 29.0795 44.7427 22.8258 44.159 17.403C44.0836 16.7744 43.9987 16.1466 43.9045 15.5198C43.4551 12.5315 41.0162 10.2405 38.0057 9.97884L34.8593 9.70534C28.2988 9.13505 21.7012 9.13505 15.1407 9.70534L11.9944 9.97884C8.98382 10.2405 6.54492 12.5315 6.09555 15.5198C6.00132 16.1464 5.91648 16.7742 5.84104 17.4027ZM15.4113 12.8186C21.7918 12.264 28.2083 12.264 34.5887 12.8186L37.735 13.0921C39.3066 13.2287 40.5797 14.4246 40.8142 15.9845C40.8386 16.1465 40.8623 16.3085 40.8853 16.4707L29.2999 22.907C26.6258 24.3927 23.3741 24.3927 20.7 22.907L9.1147 16.4708C9.13774 16.3086 9.16144 16.1465 9.18581 15.9845C9.42038 14.4246 10.6935 13.2287 12.265 13.0921L15.4113 12.8186ZM41.2677 19.8331C41.6718 24.5576 41.5207 29.3177 40.8142 34.0155C40.5797 35.5754 39.3066 36.7713 37.735 36.9079L34.5887 37.1814C28.2083 37.7361 21.7918 37.7361 15.4113 37.1814L12.265 36.9079C10.6935 36.7713 9.42038 35.5754 9.18581 34.0155C8.47937 29.3177 8.3282 24.5577 8.7323 19.8332L19.1823 25.6388C22.8003 27.6488 27.1996 27.6488 30.8175 25.6388L41.2677 19.8331Z" fill="#38E94A"/>
</svg>
