<svg width="20" height="20" viewBox="0 0 20 20" fill="none" xmlns="http://www.w3.org/2000/svg">
<path fill-rule="evenodd" clip-rule="evenodd" d="M6.1787 12.6021C3.73879 9.55574 3.93082 5.09649 6.7548 2.27252C9.78482 -0.757505 14.6975 -0.757505 17.7275 2.27252C20.7575 5.30254 20.7575 10.2152 17.7275 13.2452C14.9035 16.0692 10.4443 16.2612 7.39788 13.8213L1.47169 19.7475C1.13502 20.0842 0.58917 20.0842 0.252502 19.7475C-0.0841694 19.4108 -0.0841694 18.865 0.252502 18.5283L6.1787 12.6021ZM7.97399 3.4917C10.3307 1.13502 14.1516 1.13502 16.5083 3.4917C18.865 5.84838 18.865 9.66932 16.5083 12.026C14.1533 14.381 10.3363 14.3827 7.97918 12.0312C7.97747 12.0295 7.97575 12.0277 7.97402 12.026C7.97229 12.0243 7.97055 12.0225 7.96881 12.0208C5.61731 9.66372 5.61903 5.84666 7.97399 3.4917Z" fill="#51EF61"/>
</svg>
