<svg width="100" height="150" viewBox="0 0 100 150" fill="none" xmlns="http://www.w3.org/2000/svg">
<g clip-path="url(#clip0_98_37)">
<path d="M77.7778 16.6667H33.3333C31.8599 16.6667 30.4468 17.5446 29.405 19.1074C28.3631 20.6702 27.7778 22.7899 27.7778 25H77.7778V125H33.3333V84.1667H27.7778V125C27.7778 127.21 28.3631 129.33 29.405 130.893C30.4468 132.455 31.8599 133.333 33.3333 133.333H77.7778C79.2512 133.333 80.6643 132.455 81.7061 130.893C82.748 129.33 83.3333 127.21 83.3333 125V25C83.3333 22.7899 82.748 20.6702 81.7061 19.1074C80.6643 17.5446 79.2512 16.6667 77.7778 16.6667Z" fill="#4ECB71"/>
<path d="M42 76.9167C41.7092 77.2902 41.473 77.7499 41.3063 78.2668C41.1396 78.7837 41.0459 79.3468 41.0311 79.9206C41.0163 80.4944 41.0808 81.0667 41.2204 81.6014C41.3601 82.136 41.5719 82.6217 41.8426 83.0277C42.1133 83.4338 42.4371 83.7515 42.7935 83.961C43.15 84.1705 43.5315 84.2672 43.914 84.245C44.2966 84.2228 44.672 84.0823 45.0166 83.8322C45.3612 83.5821 45.6676 83.2278 45.9167 82.7917L62 58.6667L45.9444 34.5417C45.413 33.8591 44.7295 33.5024 44.0304 33.5429C43.3313 33.5834 42.6681 34.0181 42.1734 34.7602C41.6787 35.5022 41.3889 36.497 41.3619 37.5456C41.3349 38.5943 41.5727 39.6196 42.0278 40.4167L51.3889 54.1667H11.1111C10.3744 54.1667 9.66785 54.6057 9.14692 55.3871C8.62599 56.1685 8.33333 57.2283 8.33333 58.3333C8.33333 59.4384 8.62599 60.4982 9.14692 61.2796C9.66785 62.061 10.3744 62.5 11.1111 62.5H51.3889L42 76.9167Z" fill="#4ECB71"/>
</g>
<defs>
<clipPath id="clip0_98_37">
<rect width="100" height="150" fill="white"/>
</clipPath>
</defs>
</svg>
