<svg width="50" height="45" viewBox="0 0 50 45" fill="none" xmlns="http://www.w3.org/2000/svg">
<path fill-rule="evenodd" clip-rule="evenodd" d="M39.8911 9.84375H11.1149L8.65618 5.87737C8.3802 5.43216 7.85811 5.15625 7.29166 5.15625H4.16666C3.30372 5.15625 2.60416 5.78585 2.60416 6.5625C2.60416 7.33915 3.30372 7.96875 4.16666 7.96875H6.37416L8.80061 11.8831L14.3966 23.0266L14.4023 23.038L14.8952 24.0195L9.2768 29.4132C8.87282 29.801 8.74636 30.3607 8.94997 30.8597C9.15357 31.3588 9.65244 31.7118 10.2393 31.7722L15.3604 32.2989C21.766 32.9578 28.2341 32.9578 34.6397 32.2989L39.7608 31.7722C40.6182 31.684 41.2337 30.987 41.1358 30.2153C41.0378 29.4437 40.2633 28.8897 39.406 28.9778L34.2848 29.5046C28.1151 30.1392 21.885 30.1392 15.7152 29.5046L13.6829 29.2956L17.8066 25.3368C17.8465 25.2985 17.8835 25.2587 17.9178 25.2177L19.4861 25.4014C21.6839 25.6587 23.9055 25.7092 26.1148 25.5519C31.2679 25.1851 36.0438 22.9783 39.3781 19.4233L40.5824 18.1392C40.6228 18.0961 40.6603 18.0508 40.6947 18.0036L42.9393 14.9252C44.5302 12.7431 42.791 9.84375 39.8911 9.84375ZM18.0339 22.3951C17.6893 22.3547 17.3921 22.1577 17.2471 21.8738L17.2443 21.8683L12.6182 12.6562H39.8911C40.3054 12.6562 40.5538 13.0704 40.3266 13.3822L38.1337 16.3898L36.9901 17.6091C34.1942 20.5901 30.1895 22.4406 25.8684 22.7482C23.8756 22.89 21.8717 22.8445 19.8893 22.6124L18.0339 22.3951Z" fill="#36E247"/>
<path d="M13.5417 34.6875C11.8158 34.6875 10.4167 35.9467 10.4167 37.5C10.4167 39.0533 11.8158 40.3125 13.5417 40.3125C15.2676 40.3125 16.6667 39.0533 16.6667 37.5C16.6667 35.9467 15.2676 34.6875 13.5417 34.6875Z" fill="#36E247"/>
<path d="M33.3333 37.5C33.3333 35.9467 34.7324 34.6875 36.4583 34.6875C38.1842 34.6875 39.5833 35.9467 39.5833 37.5C39.5833 39.0533 38.1842 40.3125 36.4583 40.3125C34.7324 40.3125 33.3333 39.0533 33.3333 37.5Z" fill="#36E247"/>
</svg>
