<svg width="30" height="30" viewBox="0 0 30 30" fill="none" xmlns="http://www.w3.org/2000/svg">
<path fill-rule="evenodd" clip-rule="evenodd" d="M13.378 6.56252C13.1702 6.56252 12.9784 6.674 12.8755 6.85454L8.69305 14.1961C8.13863 15.1693 7.90598 16.2928 8.02832 17.4061L8.46974 21.4232C8.54828 22.1379 9.10937 22.704 9.82337 22.789L12.4697 23.1038C14.2166 23.3116 15.9879 23.1314 17.6573 22.5762C18.4817 22.302 19.142 21.6762 19.4602 20.8678L21.5903 15.4546C21.6424 15.3222 21.6784 15.1841 21.6975 15.0432C21.859 13.853 20.8172 12.8491 19.6339 13.0546L15.3641 13.7962C14.0154 14.0304 12.8505 12.8402 13.1137 11.4968L13.9455 7.25199C14.0155 6.89478 13.742 6.56251 13.378 6.56252ZM11.2464 5.9264C11.6827 5.16047 12.4964 4.68752 13.378 4.68752C14.9222 4.6875 16.0824 6.09711 15.7855 7.61253L14.9537 11.8574C14.9501 11.8755 14.9521 11.8867 14.9546 11.8946C14.9577 11.9045 14.964 11.916 14.9744 11.9266C14.9849 11.9373 14.9963 11.9439 15.006 11.9472C15.0139 11.9499 15.025 11.952 15.0433 11.9488L19.313 11.2073C21.7457 10.7847 23.8876 12.8486 23.5555 15.2954C23.5161 15.5851 23.4421 15.869 23.3351 16.1411L21.205 21.5543C20.6834 22.8799 19.6007 23.9058 18.249 24.3554C16.318 24.9977 14.269 25.206 12.2482 24.9656L9.60189 24.6508C8.02163 24.4629 6.77979 23.2099 6.60596 21.628L6.16454 17.6109C5.99902 16.1046 6.31379 14.5846 7.06388 13.2679L11.2464 5.9264Z" fill="#4ECB71"/>
</svg>
