<svg width="25" height="19" viewBox="0 0 25 19" fill="none" xmlns="http://www.w3.org/2000/svg">
<path fill-rule="evenodd" clip-rule="evenodd" d="M5.80959 6.58556C5.79935 6.24519 6.08042 5.94294 6.49127 5.85252C6.90213 5.76209 7.33729 5.9067 7.54668 6.20324L8.66383 7.78539C9.98871 9.66175 12.6261 10.6897 15.2926 10.3691L15.4775 10.3469C15.5107 9.67639 15.5579 9.00623 15.619 8.33667L15.703 7.41613C15.7713 6.66753 16.8161 6.24905 17.6078 6.6532C20.2049 7.97901 22.4627 9.68735 24.2609 11.6872L24.8256 12.3152C25.0581 12.5738 25.0581 12.9222 24.8256 13.1808L24.2609 13.8089C22.4627 15.8087 20.2049 17.517 17.6078 18.8428C16.8161 19.247 15.7713 18.8285 15.703 18.0799L15.619 17.1594C15.5698 16.6196 15.5296 16.0794 15.4984 15.5389L14.2378 15.5389C9.70044 15.5389 5.99199 12.6466 5.88293 9.02267L5.80959 6.58556ZM15.569 11.8363C12.5737 12.1965 9.60688 11.2331 7.76917 9.375C8.09307 12.0092 10.8723 14.0552 14.2378 14.0552L16.3905 14.0552C16.8909 14.0552 17.3014 14.3721 17.3185 14.7717C17.3511 15.5321 17.402 16.2922 17.4713 17.0515L17.478 17.1251C19.5128 15.9761 21.2959 14.5632 22.7525 12.9432L22.9281 12.748L22.7525 12.5528C21.2959 10.9328 19.5128 9.51994 17.478 8.37089L17.4713 8.44454C17.3933 9.29904 17.3386 10.1546 17.3071 11.0105C17.2939 11.3692 16.9613 11.6689 16.5171 11.7223L15.569 11.8363Z" fill="#4ECB71"/>
<path d="M21.1511 4.2506C21.2972 5.24796 21.4002 6.24832 21.4604 7.24993C21.4669 7.35835 21.5284 7.45993 21.6303 7.53177C22.0801 7.84905 22.5161 8.17875 22.9372 8.52027C23.0956 8.64871 23.3724 8.5589 23.3675 8.37862C23.3289 6.94244 23.205 5.50736 22.9957 4.07824C22.7029 2.07766 20.6917 0.509861 18.2006 0.287426C13.9086 -0.0958099 9.47205 -0.0958099 5.18005 0.287426C2.68891 0.509861 0.677811 2.07766 0.384932 4.07823C-0.128311 7.58406 -0.128311 11.1257 0.384932 14.6315C0.67781 16.6321 2.68891 18.1999 5.18006 18.4224C8.01653 18.6756 10.9161 18.7615 13.7954 18.68C14.0379 18.6732 14.2048 18.4836 14.1745 18.2913C14.1682 18.2512 14.1632 18.2107 14.1595 18.1698L14.096 17.4736C14.0814 17.3138 13.9106 17.1922 13.7101 17.1978C10.928 17.2758 8.12602 17.1924 5.38634 16.9478C3.73952 16.8008 2.42033 15.7626 2.22952 14.4592C1.73304 11.0679 1.73304 7.6419 2.22952 4.25059C2.42033 2.94722 3.73952 1.909 5.38634 1.76196C9.54124 1.39097 13.8394 1.39097 17.9943 1.76196C19.6411 1.909 20.9603 2.94722 21.1511 4.2506Z" fill="#4ECB71"/>
</svg>
